<svg width="93" height="18" viewBox="0 0 93 18" fill="none" xmlns="http://www.w3.org/2000/svg">
<path d="M11.4748 4.66284C10.989 1.97818 8.84126 0.392955 6.20774 0.392955C2.85831 0.392955 0.429332 2.97534 0.429332 7.11739C0.429332 11.2594 2.85831 13.8418 6.20774 13.8418C8.84126 13.8418 10.989 12.2566 11.4748 9.57193H9.88956C9.50604 11.3873 7.94638 12.3589 6.20774 12.3589C3.8299 12.3589 1.96342 10.518 1.96342 7.11739C1.96342 3.71682 3.8299 1.87591 6.20774 1.87591C7.94638 1.87591 9.50604 2.8475 9.88956 4.66284H11.4748ZM17.8205 13.8674C20.4796 13.8674 22.2694 11.8475 22.2694 8.80489C22.2694 5.7367 20.4796 3.71682 17.8205 3.71682C15.1614 3.71682 13.3716 5.7367 13.3716 8.80489C13.3716 11.8475 15.1614 13.8674 17.8205 13.8674ZM17.8205 12.5123C15.8006 12.5123 14.8801 10.7736 14.8801 8.80489C14.8801 6.83614 15.8006 5.07193 17.8205 5.07193C19.8404 5.07193 20.7608 6.83614 20.7608 8.80489C20.7608 10.7736 19.8404 12.5123 17.8205 12.5123ZM25.2928 3.84466H23.5542L26.6735 8.75375L23.5542 13.6628H25.2928L27.6451 9.85318L29.9973 13.6628H31.736L28.5655 8.75375L31.736 3.84466H29.9973L27.6451 7.85886L25.2928 3.84466ZM33.8885 17.3447H35.397V12.1543H35.5249C35.8572 12.6913 36.4964 13.8674 38.3885 13.8674C40.843 13.8674 42.5561 11.8986 42.5561 8.77932C42.5561 5.68557 40.843 3.71682 38.3629 3.71682C36.4453 3.71682 35.8572 4.89295 35.5249 5.40432H35.3459V3.84466H33.8885V17.3447ZM35.3714 8.75375C35.3714 6.55489 36.343 5.07193 38.1839 5.07193C40.1016 5.07193 41.0476 6.68273 41.0476 8.75375C41.0476 10.8503 40.076 12.5123 38.1839 12.5123C36.3686 12.5123 35.3714 10.9782 35.3714 8.75375ZM47.7464 13.893C49.4595 13.893 50.3544 12.9725 50.6612 12.3333H50.7379V13.6628H52.2464V7.19409C52.2464 4.07477 49.8686 3.71682 48.6158 3.71682C47.1328 3.71682 45.4453 4.22818 44.6783 6.01795L46.1101 6.52932C46.4425 5.81341 47.2287 5.04636 48.6669 5.04636C50.054 5.04636 50.7379 5.78145 50.7379 7.04068V7.09182C50.7379 7.82051 49.9964 7.75659 48.2067 7.98671C46.3849 8.22321 44.397 8.62591 44.397 10.8759C44.397 12.7935 45.88 13.893 47.7464 13.893ZM47.9766 12.5378C46.7749 12.5378 45.9055 12.0009 45.9055 10.9526C45.9055 9.80205 46.9538 9.44409 48.13 9.29068C48.7692 9.21398 50.4822 9.035 50.7379 8.72818V10.1089C50.7379 11.3361 49.7663 12.5378 47.9766 12.5378ZM56.5083 3.84466H54.9998V13.6628H56.5083V9.46966H61.2129V13.6628H62.7214V3.84466H61.2129V8.06341H56.5083V3.84466ZM66.9849 11.4384V3.84466H65.4764V13.6628H67.2406L71.9451 6.06909V13.6628H73.4537V3.84466H71.715L66.9849 11.4384ZM74.8807 5.25091H78.1278V13.6628H79.6364V5.25091H82.858V3.84466H74.8807V5.25091ZM86.5669 7.39864V3.84466H85.0584V13.6628H89.1749C91.476 13.6628 92.7289 12.2566 92.7289 10.4924C92.7289 8.70261 91.476 7.39864 89.1749 7.39864H86.5669ZM86.5669 8.80489H89.1749C90.3702 8.80489 91.2203 9.53358 91.2203 10.5691C91.2203 11.5599 90.3702 12.2566 89.1749 12.2566H86.5669V8.80489Z" fill="white"/>
</svg>
